<svg width="32" height="26" viewBox="0 0 32 26" fill="none" xmlns="http://www.w3.org/2000/svg">
<path fill-rule="evenodd" clip-rule="evenodd" d="M30.8288 14.0612C31.5249 13.2586 31.9227 12.155 31.9227 11.0514C31.9227 8.34259 29.7348 6.03509 26.8509 6.03509C24.663 6.03509 22.873 6.73738 18.895 6.73738C16.3094 6.73738 14.3205 6.43639 13.1271 6.13542C12.7293 6.03509 12.3315 5.83444 11.9337 5.63379C11.4365 6.23574 10.5414 7.23901 9.54697 8.3426C8.3536 9.54651 6.96133 10.8507 6.0663 11.553C6.16575 12.155 6.2652 12.6566 6.56354 13.1582C6.86188 13.8605 7.45857 14.4625 7.75691 15.9674C7.85636 16.469 8.25415 18.9772 8.25415 21.4853C8.25415 23.0905 7.75691 24.5954 7.75691 24.5954H6.76243C6.36464 24.5954 6.0663 24.8964 6.0663 25.2977C6.0663 25.699 6.36464 26 6.76243 26H9.14918C9.84531 25.8997 10.0442 25.5987 10.2431 24.5954C10.2431 24.5954 10.6409 23.2912 10.6409 21.686C10.6409 19.9804 10.442 18.0742 10.3426 16.9706C10.3426 16.2684 10.6409 15.9674 10.6409 15.9674C10.7403 15.9674 10.8398 15.9674 10.9392 15.9674H12.1326C15.116 15.9674 19.5912 13.4592 22.4752 13.4592C23.9669 13.4592 24.8619 14.7635 25.2597 15.4658C25.3591 15.5661 25.3591 15.6664 25.4586 15.8671C25.4586 15.9674 25.558 15.9674 25.558 15.9674C25.7569 16.469 26.0553 16.9706 26.1547 17.372C26.652 18.7765 27.547 20.4821 27.547 21.686C27.547 23.2912 26.8509 24.4951 26.8509 24.4951H25.558C25.1602 24.4951 24.8619 24.7961 24.8619 25.1974C24.8619 25.5987 25.1602 25.8997 25.558 25.8997H28.2431C28.6409 25.8997 28.9393 25.5987 28.9393 25.1974L29.1381 24.4951C29.1381 24.4951 29.8343 23.1909 29.8343 21.5856C29.8343 20.6827 29.2376 19.6795 29.1381 18.7765C29.0387 17.372 30.9282 14.0612 30.8288 14.0612C30.9282 14.0612 30.8288 14.0612 30.8288 14.0612ZM25.7569 2.92498C26.4531 2.92498 26.652 2.42335 27.0497 2.12237C27.4475 1.82139 28.0442 1.72107 28.5415 1.72107C29.0387 1.72107 29.4365 1.82139 29.7348 2.02205C30.431 2.72433 31.0277 3.72759 30.1326 5.93477C30.1326 5.93477 30.1326 5.93477 30.1326 6.03509C30.3315 6.13542 30.5304 6.23574 30.7293 6.4364C30.9282 6.23574 31.1271 5.93477 31.326 5.53346C32.0221 4.02857 32.221 3.02531 31.7238 1.72107C31.5249 1.01879 30.7293 0.316499 29.8343 0.115847C29.4365 0.0155205 28.3426 -0.0848056 27.4475 0.115847C26.652 0.316499 26.2542 0.517157 25.9558 0.71781C24.7625 1.42009 25.0608 2.32302 25.1602 2.52368C25.2597 2.82465 25.558 2.92498 25.7569 2.92498ZM10.5414 5.03183C9.54697 4.32955 8.75139 3.42661 8.3536 2.42335C7.85636 1.42009 7.65747 0.015522 7.35913 0.015522C6.66299 0.015522 6.36465 2.72433 6.36465 2.72433C6.2652 2.72433 5.8674 2.72433 5.76796 2.82466C5.37017 2.92498 4.97238 3.12564 4.47514 3.72759C3.67956 4.32955 3.38122 4.5302 2.98343 4.63052C2.38674 4.9315 1.49171 4.93151 1.49171 4.93151C0.696133 4.93151 0 5.43314 0 6.23575C0 7.03836 0.596686 7.53998 1.49171 7.53998C2.68509 7.53998 3.9779 8.14194 3.9779 8.14194C4.97238 8.54324 5.46961 9.34585 5.76796 10.1485C6.56354 9.44618 7.55802 8.54324 8.45305 7.64031C9.24863 6.53672 10.0442 5.63379 10.5414 5.03183Z" fill="#A3C0C7"/>
</svg>
