<svg width="31" height="32" viewBox="0 0 31 32" fill="none" xmlns="http://www.w3.org/2000/svg">
<path fill-rule="evenodd" clip-rule="evenodd" d="M14 15C14 13 13 11 12 11C11 11 10 13 10 15H9V18H10V28C10 30 11 32 12 32C13 32 14 30 14 28H15V25H14V15ZM6.7 4.10001C6.7 3.40001 7.4 2.7 7.4 2H6.7C6.7 2.7 5.9 2.70001 6 4.10001C6 5.10001 8.2 5.50001 8.2 6.20001C8.2 7.30001 6.7 6.89999 6.7 8.29999V9H7.4V8.29999C7.4 7.59999 8.9 7.60001 8.9 6.20001C9 5.20001 6.8 4.80001 6.7 4.10001ZM0 16.5C0 17.2 0.4 17.7 1 17.9V15.1C0.4 15.3 0 15.8 0 16.5ZM7 15C7 13 6 11 5 11C4 11 3 13 3 15V28C3 30 4 32 5 32C6 32 7 30 7 28H8V25H7V15ZM17 4.20001C17 3.20001 14.8 2.80001 14.8 2.10001C14.8 1.40001 15.5 0.7 15.5 0H14.8C14.8 0.7 14 0.700006 14.1 2.10001C14.1 3.10001 16.3 3.50001 16.3 4.20001C16.3 5.30001 14.8 4.89999 14.8 6.29999V7H15.5V6.29999C15.5 5.59999 16.9 5.60001 17 4.20001ZM21 15C21 13 20 11 19 11C18 11 17 13 17 15H16V18H17V28C17 30 18 32 19 32C20 32 21 30 21 28H22V25H21V15ZM26 11C25 11 24 13 24 15H23V18H24V28C24 30 25 32 26 32C27 32 28 30 28 28V15C28 13 27 11 26 11ZM30 25.1V27.9C30.6 27.7 31 27.1 31 26.5C31 25.8 30.6 25.3 30 25.1ZM22.7 8.29999V9H23.4V8.29999C23.4 7.59999 24.9 7.60001 24.9 6.20001C24.9 5.20001 22.7 4.80001 22.7 4.10001C22.7 3.40001 23.4 2.7 23.4 2H22.7C22.7 2.7 21.9 2.70001 22 4.10001C22 5.10001 24.2 5.50001 24.2 6.20001C24.2 7.30001 22.8 6.89999 22.7 8.29999Z" fill="#A3C0C7"/>
</svg>
