<svg width="24" height="32" viewBox="0 0 24 32" fill="none" xmlns="http://www.w3.org/2000/svg">
<path fill-rule="evenodd" clip-rule="evenodd" d="M23 14.9621H1C0.4 14.9621 0 15.3611 0 15.9595C0 16.558 0.4 16.957 1 16.957H23C23.6 16.957 24 16.558 24 15.9595C24 15.3611 23.6 14.9621 23 14.9621ZM12 1.99494C13.1 1.99494 14 1.59595 14 0.997471C14 0.398988 13.1 0 12 0C10.9 0 10 0.398988 10 0.997471C10 1.49621 10.9 1.99494 12 1.99494ZM2 13.9646H22C22.7 13.9646 23 13.3661 23 12.9671C22.6 7.78027 17.8 3.98988 12 3.98988C6.2 3.98988 1.4 7.78027 1 12.9671C1 13.3661 1.3 13.9646 2 13.9646ZM11.4 4.98735C12.1 4.98735 12.2 5.88508 11.4 5.98483C7.79999 6.18432 4.80001 8.07951 3.60001 10.8724C3.40001 11.2714 3.19999 11.3712 2.89999 11.3712C2.49999 11.3712 2.5 10.8724 2.5 10.8724C3.7 7.58078 7.19999 5.18685 11.4 4.98735ZM16.7 19.5504C15.5 20.1489 13.8 21.2461 12.6 21.7449C12.2 21.9444 10.9 22.5428 9.60001 21.2461C8.60001 20.1489 7.49999 19.4507 6.89999 19.1514C6.49999 18.9519 6.30001 18.9519 6.10001 18.9519C5.20001 19.0517 5.30001 19.7499 5.60001 19.9494C6.00001 20.1489 6.1 20.1489 6.5 20.5479C7.2 21.2461 7.90001 22.1439 7.10001 24.1388C7.00001 24.3383 6.80001 24.6375 6.60001 24.837C5.90001 25.5353 9.19999 28.9267 10.4 28.1287C10.7 27.7297 11.2 27.1312 11.3 27.0315C12.2 26.3332 13.1 25.5353 13.5 25.0365C16.8 20.4482 19.3 20.6476 19.5 20.3484C19.9 20.1489 20.2 19.8497 19.9 19.5504C19.4 18.6527 17.5 18.9519 16.7 19.5504ZM5.3 27.1312C5 26.832 4.5 26.9317 4.2 27.231L3.2 28.3282C2.9 28.6274 2.9 29.1262 3.3 29.3256L6.10001 31.8193C6.40001 32.1186 6.9 32.0188 7.2 31.7196L8.2 30.6224C8.5 30.3231 8.50001 29.8244 8.10001 29.6249L5.3 27.1312Z" fill="#A3C0C7"/>
</svg>
