<svg width="20" height="32" viewBox="0 0 20 32" fill="none" xmlns="http://www.w3.org/2000/svg">
<path fill-rule="evenodd" clip-rule="evenodd" d="M2.78606 13.572C3.08456 14.0701 3.6816 14.5682 4.17912 15.0662C4.17912 14.5682 4.2786 14.0701 4.3781 13.572C3.38308 12.5759 2.78608 11.0818 3.18409 9.28879C3.88061 5.40398 6.96516 3.61099 10.2487 3.11293C10.2487 3.11293 10.7463 3.01332 11.0448 3.01332C13.2338 2.91371 15.6219 3.81021 15.5224 7.19697C15.2239 7.19697 15.0249 7.19697 15.0249 7.19697C14.4279 7.19697 13.6318 7.29658 13.0348 7.39619C12.0398 7.59541 10.7463 7.79463 9.95025 8.09346C9.65174 8.19307 8.85572 8.49191 7.9602 9.18919C8.55721 8.89035 9.25373 8.79073 9.95025 8.79073C10.4478 8.79073 10.8458 8.89034 11.2438 8.98995C11.6418 8.89034 12.2388 8.79074 12.9353 8.59152C13.6318 8.49191 14.3284 8.39229 15.0249 8.29268C15.0249 8.29268 15.2239 8.29268 15.5224 8.29268C15.6219 8.39229 15.7214 8.4919 15.7214 8.4919C16.1194 9.18917 16.5174 9.78684 16.7164 10.4841C17.0149 11.5798 16.6169 12.6755 15.5224 13.572C15.6219 13.9705 15.7214 14.3689 15.7214 14.867C17.8109 13.4724 18.01 11.9783 18.01 11.3806C17.9104 10.1853 17.5124 9.08956 16.7164 7.99385C16.7164 7.99385 16.6169 7.89424 16.6169 7.79463C17.2139 3.61098 14.2289 2.51527 13.6318 2.31605C13.5323 2.31605 13.5323 2.31606 13.4328 2.21645C13.4328 2.21645 13.4328 2.11683 13.3333 2.11683C11.8408 0.423449 10.7463 0.224222 9.55224 0.0250008C8.45772 -0.0746098 5.77114 0.0250129 3.9801 2.21645C3.18408 3.31216 2.88558 4.60709 3.08458 6.30047C2.58707 7.29658 2.08955 8.49191 1.99005 10.1853C1.99005 10.9822 1.89053 12.1775 2.78606 13.572ZM5.27362 2.41566C7.16416 0.821895 10.0498 0.722284 11.6418 1.91761C11.2438 1.91761 10.9453 1.91761 10.5473 1.91761C10.2488 1.91761 9.95025 1.9176 9.95025 2.01721C9.85074 2.01721 9.65174 2.01722 9.55224 2.11683C9.35324 2.11683 9.15423 2.21645 9.05473 2.21645C7.7612 2.51528 6.66668 3.01332 5.17414 3.81021C4.87563 4.10904 4.37811 4.40788 3.9801 4.90593C4.1791 4.00943 4.4776 3.21255 5.27362 2.41566ZM19.9005 29.2109C19.801 26.8202 19.3035 24.7284 16.9154 24.0312C16.5174 23.9315 15.6219 23.6327 14.9254 23.5331C14.4279 23.3339 11.9403 22.4374 11.9403 21.6405C11.9403 20.9432 12.6368 20.0467 12.9353 19.6483C14.0298 18.6522 14.7264 17.0584 14.7264 15.365C14.7264 12.3767 12.6368 9.88646 10.0498 9.88646C7.46269 9.88646 5.37313 12.3767 5.37313 15.365C5.37313 17.0584 6.06966 18.5526 7.06468 19.6483C7.36319 19.9471 8.0597 20.9432 8.0597 21.6405C8.0597 22.4374 5.67165 23.3339 5.17414 23.5331C4.37812 23.6327 3.48259 23.9315 3.08458 24.0312C0.696523 24.828 0.199011 26.8202 0.0995085 29.2109C0.0995085 29.5097 0.0995085 29.5097 0.0995085 29.5097C0.0995085 29.5097 0.0995085 29.6094 0.0995085 29.8086C0.0995085 30.5058 0.995037 31.0039 2.68658 31.4023C4.57713 31.7012 6.56717 31.9004 10.0498 32C13.5323 32 15.6219 31.8008 17.4129 31.5019C19.1045 31.1035 20 30.5058 20 29.8086C19.9005 28.9121 19.9005 30.0078 19.9005 29.2109ZM0 29.5097C0 29.4101 0 29.5097 0 29.5097V29.5097Z" fill="#A3C0C7"/>
</svg>
