<svg width="20" height="22" viewBox="0 0 20 22" fill="none" xmlns="http://www.w3.org/2000/svg">
<path opacity="0.6" fill-rule="evenodd" clip-rule="evenodd" d="M10.2488 1.00226C10.2687 0.962759 10.2688 0.962827 10.269 0.962896L10.2697 0.963278L10.2716 0.964218L10.2767 0.966808L10.2922 0.974848C10.3049 0.981487 10.3223 0.990699 10.344 1.00255C10.3455 1.00342 10.3472 1.0043 10.3488 1.0052C15.7101 1.18898 20 5.59313 20 10.9992C20 16.4053 15.7101 20.8095 10.3488 20.9933C10.3472 20.9942 10.3455 20.995 10.344 20.9959C10.3223 21.0078 10.3049 21.017 10.2922 21.0236L10.2767 21.0317L10.2716 21.0342L10.2697 21.0352L10.269 21.0356C10.2688 21.0356 10.2687 21.0357 10.2488 20.9962C10.1661 20.9982 10.0832 20.9992 10 20.9992C9.91682 20.9992 9.83389 20.9982 9.75119 20.9962C9.7313 21.0357 9.73117 21.0356 9.73103 21.0356L9.73027 21.0352L9.7284 21.0342L9.72331 21.0317L9.70777 21.0236C9.69506 21.017 9.67772 21.0078 9.65604 20.9959L9.65119 20.9933C4.28986 20.8095 0 16.4053 0 10.9992C0 5.59313 4.28987 1.18898 9.6512 1.0052L9.65604 1.00255C9.67772 0.990699 9.69506 0.981487 9.70777 0.974848L9.72331 0.966808L9.7284 0.964218L9.73027 0.963278L9.73103 0.962896C9.73117 0.962827 9.7313 0.962759 9.75119 1.00226C9.83388 1.00025 9.91682 0.99923 10 0.99923C10.0832 0.99923 10.1661 1.00025 10.2488 1.00226ZM10.0108 2.19924C10.0072 2.19923 10.0036 2.19923 10 2.19923L9.98919 2.19924C9.87716 2.26985 9.736 2.36396 9.57357 2.48307C9.13689 2.80331 8.54949 3.30208 7.96093 4.00834C7.22792 4.88796 6.48766 6.09531 6.03634 7.6952C7.26938 7.81952 8.60427 7.89923 10 7.89923C11.3957 7.89923 12.7306 7.81952 13.9637 7.6952C13.5123 6.09531 12.7721 4.88796 12.0391 4.00834C11.4505 3.30208 10.8631 2.80331 10.4264 2.48307C10.264 2.36396 10.1228 2.26985 10.0108 2.19924ZM14.2277 8.87442C12.9187 9.01078 11.4939 9.09923 10 9.09923C8.50609 9.09923 7.08132 9.01078 5.77233 8.87442C5.66226 9.52718 5.6 10.2344 5.6 10.9992C5.6 11.7641 5.66227 12.4713 5.77233 13.124C7.08132 12.9877 8.50609 12.8992 10 12.8992C11.4939 12.8992 12.9187 12.9877 14.2277 13.124C14.3377 12.4713 14.4 11.7641 14.4 10.9992C14.4 10.2344 14.3377 9.52718 14.2277 8.87442ZM15.4208 13.2648C15.5356 12.5644 15.6 11.8101 15.6 10.9992C15.6 10.1884 15.5356 9.43404 15.4208 8.73361C16.5144 8.58948 17.5053 8.41757 18.3608 8.24626C18.6458 9.11232 18.8 10.0378 18.8 10.9992C18.8 11.9607 18.6458 12.8861 18.3608 13.7522C17.5053 13.5809 16.5144 13.409 15.4208 13.2648ZM13.9637 14.3033C12.7306 14.1789 11.3957 14.0992 10 14.0992C8.60427 14.0992 7.26938 14.1789 6.03634 14.3033C6.48766 15.9031 7.22792 17.1105 7.96093 17.9901C8.54949 18.6964 9.13689 19.1952 9.57357 19.5154C9.736 19.6345 9.87716 19.7286 9.98919 19.7992L10 19.7992C10.0036 19.7992 10.0072 19.7992 10.0108 19.7992C10.1228 19.7286 10.264 19.6345 10.4264 19.5154C10.8631 19.1952 11.4505 18.6964 12.0391 17.9901C12.7721 17.1105 13.5123 15.9031 13.9637 14.3033ZM12.281 19.5007C12.5033 19.2799 12.7322 19.0329 12.9609 18.7583C13.8222 17.7248 14.6758 16.3075 15.1697 14.4422C16.1749 14.5725 17.0933 14.7274 17.8983 14.884C16.79 17.1331 14.7494 18.8401 12.281 19.5007ZM15.1697 7.55622C14.6758 5.691 13.8222 4.27369 12.9609 3.24012C12.7322 2.96561 12.5033 2.7186 12.281 2.49772C14.7494 3.15834 16.79 4.8654 17.8983 7.11442C17.0933 7.27109 16.1749 7.42597 15.1697 7.55622ZM2.10172 7.11442C3.21001 4.8654 5.25061 3.15834 7.71903 2.49772C7.49673 2.7186 7.26783 2.96561 7.03907 3.24012C6.17775 4.27369 5.32421 5.691 4.83025 7.55622C3.82505 7.42597 2.90665 7.27109 2.10172 7.11442ZM1.63919 8.24626C2.49469 8.41757 3.48556 8.58948 4.57919 8.73361C4.46442 9.43404 4.4 10.1884 4.4 10.9992C4.4 11.8101 4.46442 12.5644 4.57919 13.2648C3.48556 13.409 2.49469 13.5809 1.63919 13.7522C1.35419 12.8861 1.2 11.9607 1.2 10.9992C1.2 10.0378 1.35419 9.11232 1.63919 8.24626ZM2.10172 14.884C2.90665 14.7274 3.82505 14.5725 4.83025 14.4422C5.32421 16.3075 6.17775 17.7248 7.03907 18.7583C7.26783 19.0329 7.49673 19.2799 7.71903 19.5007C5.25061 18.8401 3.21001 17.1331 2.10172 14.884Z" fill="#718388"/>
</svg>
