<svg width="32" height="32" viewBox="0 0 32 32" fill="none" xmlns="http://www.w3.org/2000/svg">
<path fill-rule="evenodd" clip-rule="evenodd" d="M20.7673 16.8354C17.7701 15.2394 14.1734 15.2394 11.1761 16.8354C9.47772 17.7332 8.97818 19.7282 9.77744 20.4264C10.5767 21.2244 11.8755 21.0249 12.9745 20.5262C14.8727 19.5287 17.1706 19.5287 19.0688 20.5262C20.0679 21.0249 21.3667 21.2244 22.2659 20.4264C22.9652 19.7282 22.4657 17.8329 20.7673 16.8354ZM23.7645 10.3516C18.869 7.65833 12.9745 7.65833 8.07901 10.3516C5.2816 11.8479 4.0827 14.6409 4.88196 15.3391C5.68122 16.1371 7.67938 15.1396 9.77744 14.0424C13.5739 11.9476 18.1697 11.9476 21.9662 14.0424C24.0642 15.1396 26.0624 16.1371 26.8616 15.3391C27.7608 14.6409 26.5619 11.8479 23.7645 10.3516ZM26.8616 3.76808C20.0679 0.0773063 11.9754 0.0773063 5.08178 3.76808C1.18538 5.86284 -0.612956 9.45386 0.186306 10.1521C0.985567 10.9501 3.68307 9.1546 6.88012 7.45884C12.5749 4.36657 19.4685 4.36657 25.1632 7.45884C28.2604 9.1546 31.0578 10.8504 31.857 10.1521C32.5564 9.45386 30.6581 5.86284 26.8616 3.76808ZM15.9717 23.0199C13.7737 23.0199 11.9754 24.8155 11.9754 27.01C11.9754 29.2045 13.7737 31 15.9717 31C18.1697 31 19.968 29.2045 19.968 27.01C19.968 24.8155 18.1697 23.0199 15.9717 23.0199Z" fill="#A3C0C7"/>
</svg>
